<?xml version="1.0" standalone="no"?>
<!DOCTYPE svg PUBLIC "-//W3C//DTD SVG 20010904//EN"
 "http://www.w3.org/TR/2001/REC-SVG-20010904/DTD/svg10.dtd">
<svg version="1.0" xmlns="http://www.w3.org/2000/svg"
 width="225.000000pt" height="225.000000pt" viewBox="0 0 225.000000 225.000000"
 preserveAspectRatio="xMidYMid meet">
<metadata>
Created by potrace 1.14, written by Peter Selinger 2001-2017
</metadata>
<g transform="translate(0.000000,225.000000) scale(0.100000,-0.100000)"
fill="#000000" stroke="none">
<path d="M1010 2244 c-330 -42 -596 -195 -789 -454 -97 -130 -158 -265 -198
-442 -22 -99 -22 -345 0 -445 104 -463 430 -783 902 -884 86 -19 332 -16 422
4 149 34 280 88 403 168 95 62 275 248 332 344 193 325 218 706 69 1047 -52
118 -120 216 -220 321 -163 169 -340 269 -563 318 -86 19 -288 32 -358 23z
m177 -726 l48 -72 263 3 c144 1 262 0 262 -4 0 -3 -16 -13 -35 -21 -26 -11
-86 -14 -260 -14 l-225 0 -45 -41 c-59 -54 -58 -42 1 21 l47 50 -33 0 c-18 0
-30 3 -27 6 3 4 2 15 -4 25 -7 14 -21 19 -54 19 -33 0 -47 -5 -54 -19 -6 -10
-7 -21 -4 -25 3 -3 -7 -6 -22 -6 l-29 0 35 -37 c60 -65 76 -90 28 -45 -43 40
-75 58 -49 27 11 -13 -7 -15 -153 -15 -112 0 -175 4 -194 13 -23 10 -2 13 152
17 l180 6 -225 2 c-199 2 -230 5 -265 22 l-40 19 272 -2 c149 -1 274 1 276 3
15 16 77 121 77 130 0 30 35 2 77 -62z m-129 -10 c-3 -8 -26 -14 -59 -15 -30
-2 -76 -8 -102 -14 -26 -6 -50 -9 -53 -7 -7 7 78 30 144 38 31 4 61 8 65 9 5
0 7 -5 5 -11z m352 -32 c19 -9 24 -13 11 -10 -56 14 -176 32 -184 27 -4 -2
-15 -2 -25 2 -13 5 -13 8 -4 14 17 10 157 -12 202 -33z m170 -91 c-19 -11 -66
-14 -194 -15 -149 0 -167 2 -156 15 10 12 44 15 194 15 162 -1 178 -2 156 -15z
m-513 -42 c4 -10 -209 -4 -220 7 -4 4 43 6 105 5 62 -2 114 -7 115 -12z m390
6 c-21 -11 -257 -20 -257 -10 0 5 10 11 23 13 38 6 246 3 234 -3z m-1166 -278
c20 -35 43 -67 50 -72 10 -6 3 -9 -20 -9 -19 0 -31 3 -28 6 3 4 2 15 -4 25
-13 25 -104 27 -113 3 -3 -9 -4 -20 0 -25 3 -5 -6 -9 -19 -9 -25 0 -24 1 19
67 24 36 41 70 38 75 -4 5 4 8 17 6 16 -2 34 -22 60 -67z m101 20 c-3 -39 0
-53 17 -70 12 -12 30 -21 41 -21 11 0 29 9 41 21 17 17 20 31 17 70 -2 39 0
49 13 49 12 0 14 -9 9 -54 -8 -69 -30 -96 -80 -96 -57 0 -82 26 -90 94 -6 52
-5 56 14 56 19 0 21 -5 18 -49z m356 30 c3 -9 0 -11 -9 -6 -7 5 -26 9 -42 10
l-29 2 4 -69 c3 -62 1 -68 -17 -68 -18 0 -20 6 -17 70 4 76 0 80 -52 60 -21
-8 -26 -6 -26 6 0 12 15 14 92 12 67 -2 93 -7 96 -17z m185 8 c29 -15 26 -12
37 -49 8 -29 6 -36 -20 -61 -23 -24 -37 -29 -75 -29 -103 0 -146 60 -86 121
24 24 38 29 76 29 25 0 56 -5 68 -11z m214 -6 c3 -9 -3 -9 -25 -1 -34 13 -82
3 -82 -16 0 -8 16 -17 38 -21 49 -9 82 -31 82 -55 0 -26 -29 -40 -84 -40 -54
0 -76 8 -76 27 0 12 3 12 22 -1 25 -17 75 -21 97 -7 23 15 4 39 -36 47 -53 9
-73 21 -73 44 0 10 8 24 18 29 23 14 114 9 119 -6z m203 1 c0 -13 -3 -14 -14
-5 -8 7 -32 11 -53 9 -34 -3 -38 -6 -41 -32 -3 -28 -2 -28 37 -24 25 2 41 -1
41 -7 0 -6 -16 -9 -40 -7 -39 4 -40 3 -40 -27 0 -30 1 -31 48 -31 26 0 54 6
61 13 10 10 11 9 6 -5 -6 -15 -20 -18 -79 -18 l-71 0 0 75 0 75 73 0 c60 0 72
-3 72 -16z m84 -54 l-3 -70 48 0 c26 0 53 6 60 13 10 10 11 9 6 -5 -6 -15 -20
-18 -74 -18 l-66 0 0 75 c0 63 3 75 16 75 14 0 16 -11 13 -70z m181 0 l-4 -70
48 0 c26 0 53 6 60 13 10 10 11 9 6 -5 -6 -15 -20 -18 -74 -18 l-66 0 3 66 c3
48 0 69 -10 75 -9 6 -5 9 14 9 l26 0 -3 -70z m295 53 c0 -13 -3 -14 -12 -5 -7
7 -31 12 -55 12 -41 0 -43 -1 -43 -31 0 -30 1 -31 40 -27 24 2 40 -1 40 -7 0
-6 -16 -9 -39 -7 -35 4 -39 1 -43 -23 -7 -33 7 -39 67 -32 25 2 45 1 45 -4 0
-5 -33 -9 -72 -9 l-73 0 3 66 c3 48 0 69 -10 75 -8 5 20 9 70 9 71 0 82 -2 82
-17z m191 -4 c20 -20 20 -22 3 -40 -9 -10 -24 -19 -33 -19 -11 0 -4 -12 21
-35 34 -32 36 -35 15 -35 -19 1 -97 61 -97 75 0 3 9 5 19 5 51 0 74 44 29 55
-55 12 -63 3 -63 -69 0 -55 -3 -66 -17 -66 -14 0 -17 13 -20 75 l-3 75 63 0
c49 0 66 -4 83 -21z"/>
<path d="M1105 1530 c-14 -28 -14 -30 2 -30 33 0 46 15 34 39 -15 27 -18 27
-36 -9z"/>
<path d="M215 1086 c-21 -32 -18 -38 17 -28 24 6 25 9 14 31 l-13 24 -18 -27z"/>
<path d="M816 1107 c-17 -17 -22 -31 -19 -51 15 -76 143 -72 143 5 0 63 -78
92 -124 46z"/>
</g>
</svg>
